<svg width="120" height="128" viewBox="0 0 120 128" fill="none" xmlns="http://www.w3.org/2000/svg">
<path d="M77.2446 6.72537L56.1184 42.6787C55.9326 42.995 55.7079 43.2878 55.4495 43.5503L41.5142 57.7112C40.5169 58.7246 40.7544 60.3891 41.9969 61.094C42.8733 61.5911 43.9816 61.4384 44.685 60.7236L55.728 49.502C57.7841 47.4127 61.2912 47.7783 62.8553 50.2451L64.7287 54.209C66.1058 54.9902 67.7982 55.0077 69.1918 54.2551L113.238 30.4689C117.27 28.2914 121.666 32.7022 119.365 36.6173L102.002 66.1675C100.959 67.9427 98.8197 68.7926 96.8139 68.2288L79.354 63.3214C78.3811 63.0479 77.3436 63.4601 76.8376 64.3212C76.1202 65.5421 76.7616 67.1003 78.141 67.488L97.4155 72.9055C97.7729 73.006 98.1164 73.1491 98.4383 73.3317L116.11 83.3564C119.177 85.0964 119.131 89.4618 116.028 91.1391L48.8991 127.422C44.867 129.602 40.4695 125.19 42.7705 121.275L60.1343 91.7241C61.1774 89.9489 63.3163 89.0991 65.3221 89.6628L82.7349 94.5571C83.7078 94.8305 84.7453 94.4183 85.2513 93.5572C85.9687 92.3363 85.3274 90.7781 83.9479 90.3904L65.6471 85.2466C64.6677 84.9713 63.8108 84.3809 63.2138 83.5699L55.4306 73.6992C54.0492 72.9048 52.3445 72.8826 50.9422 73.6408L6.7637 97.5269C2.73324 99.706 -1.66437 95.2988 0.632777 91.3825L21.74 55.3979C21.9262 55.0804 22.1514 54.7867 22.4106 54.5233L36.3448 40.3637C37.3421 39.3503 37.1045 37.6858 35.862 36.9809C34.9856 36.4837 33.8773 36.6364 33.1739 37.3513L20.5505 50.1789C19.1003 51.6525 16.8155 51.9673 15.0088 50.9424L3.90529 44.6436C0.838023 42.9036 0.883965 38.5382 3.9872 36.8609L71.116 0.577766C75.1481 -1.60158 79.5456 2.80954 77.2446 6.72537Z" fill="url(#paint0_linear)"/>
<defs>
<linearGradient id="paint0_linear" x1="0" y1="0" x2="145.472" y2="44.2045" gradientUnits="userSpaceOnUse">
<stop stop-color="#008FCC"/>
<stop offset="0.755208" stop-color="#300A9B"/>
<stop offset="1" stop-color="#870A9B"/>
</linearGradient>
</defs>
</svg>
