<svg width="244" height="258" viewBox="0 0 244 258" fill="none" xmlns="http://www.w3.org/2000/svg">
<path d="M128.163 101.276L128.149 101.249L128.133 101.222C124.831 96.0149 117.436 95.2469 113.1 99.6534L91.0137 122.097C89.7667 123.364 87.7977 123.636 86.2406 122.753C84.0385 121.504 83.623 118.563 85.3847 116.773L113.255 88.4514C113.801 87.8971 114.275 87.2789 114.668 86.6108L156.92 14.704C161.799 6.40114 152.468 -2.8644 143.994 1.71567L9.73665 74.282C3.18491 77.8232 3.08729 87.0481 9.56387 90.7221L31.7709 103.32C35.5799 105.48 40.3972 104.818 43.4574 101.709L68.7042 76.0532C69.9512 74.786 71.9201 74.5133 73.4773 75.3967C75.6794 76.6459 76.0949 79.5864 74.3331 81.3767L46.4649 109.696C45.9177 110.252 45.442 110.872 45.0487 111.543L2.83427 183.512C-2.03644 191.816 7.29484 201.073 15.7652 196.494L104.122 148.721C106.746 147.303 109.932 147.329 112.529 148.785L128.03 168.443C129.291 170.152 131.097 171.395 133.159 171.975L169.761 182.262C172.212 182.951 173.336 185.709 172.072 187.861C171.177 189.384 169.336 190.119 167.605 189.633L132.779 179.844C128.553 178.656 124.041 180.445 121.838 184.195L87.1098 243.296C82.231 251.599 91.5622 260.864 100.036 256.284L234.294 183.718C240.845 180.177 240.943 170.952 234.466 167.278L199.123 147.229C198.444 146.843 197.72 146.541 196.966 146.33L158.417 135.495C155.966 134.806 154.842 132.048 156.106 129.896C157.001 128.373 158.842 127.638 160.573 128.124L195.493 137.939C199.719 139.127 204.231 137.338 206.434 133.588L241.162 74.4878C246.04 66.1865 236.713 56.9217 228.239 61.4978L140.146 109.07C137.556 110.469 134.42 110.461 131.841 109.059L128.163 101.276Z" stroke="white"/>
</svg>
