<svg width="240" height="256" viewBox="0 0 240 256" fill="none" xmlns="http://www.w3.org/2000/svg">
<path d="M154.489 13.4507L112.237 85.3575C111.865 85.9901 111.416 86.5755 110.899 87.1007L83.0283 115.422C81.0337 117.449 81.5088 120.778 83.9938 122.188C85.7466 123.182 87.9632 122.877 89.3701 121.447L111.456 99.0041C115.568 94.8253 122.582 95.5566 125.711 100.49L129.457 108.418C132.212 109.98 135.596 110.015 138.384 108.51L226.477 60.9377C234.541 56.5828 243.332 65.4043 238.731 73.2345L204.003 132.335C201.917 135.885 197.639 137.585 193.628 136.458L158.708 126.643C156.762 126.096 154.687 126.92 153.675 128.642C152.24 131.084 153.523 134.201 156.282 134.976L194.831 145.811C195.546 146.012 196.233 146.298 196.877 146.663L232.22 166.713C238.354 170.193 238.262 178.924 232.056 182.278L97.7982 254.844C89.734 259.203 80.939 250.381 85.5409 242.549L120.269 183.448C122.355 179.898 126.633 178.198 130.644 179.326L165.47 189.114C167.416 189.661 169.491 188.837 170.503 187.114C171.937 184.673 170.655 181.556 167.896 180.781L131.294 170.493C129.335 169.943 127.622 168.762 126.428 167.14L110.861 147.398C108.098 145.81 104.689 145.765 101.884 147.282L13.5274 195.054C5.46648 199.412 -3.32873 190.598 1.26555 182.765L43.48 110.796C43.8524 110.161 44.3028 109.573 44.8212 109.047L72.6895 80.7274C74.6841 78.7005 74.2091 75.3715 71.724 73.9618C69.9712 72.9675 67.7547 73.2729 66.3478 74.7025L41.101 100.358C38.2007 103.305 33.6311 103.935 30.0176 101.885L7.81057 89.2872C1.67605 85.8072 1.76793 77.0764 7.9744 73.7218L142.232 1.15553C150.296 -3.20317 159.091 5.61908 154.489 13.4507Z" fill="white"/>
</svg>
